<?xml version="1.0" encoding="utf-8"?>
<!-- Generator: Adobe Illustrator 18.1.0, SVG Export Plug-In . SVG Version: 6.00 Build 0)  -->
<svg version="1.1" id="Capa_1" xmlns="http://www.w3.org/2000/svg" xmlns:xlink="http://www.w3.org/1999/xlink" x="0px" y="0px"
	 viewBox="0 0 366 108.5" enable-background="new 0 0 366 108.5" xml:space="preserve">
<g>
	<g>
		<g>
			<path fill="#11159A" d="M61.9,85c0-11-13.7-20-30.6-20C14.4,65,0.7,74,0.7,85c0,0.3,0,1.1,0,1.2c0,11.7,12,21.2,30.6,21.2
				c18.7,0,30.6-9.5,30.6-21.2C61.9,85.8,61.9,85.5,61.9,85z"/>
			<ellipse fill="#009BDB" cx="31.3" cy="85" rx="29.4" ry="18.8"/>
			<g>
				<path fill="#FFFFFF" d="M21.5,79.1c0,0-0.3,0.3-0.1,0.6c0.5,0.6,1.9,0.9,3.3,0.6c0.9-0.2,2-1.1,3-1.9c1.2-0.9,2.3-1.8,3.5-2.2
					c1.2-0.4,2-0.2,2.5-0.1c0.6,0.2,1.2,0.5,2.3,1.3c2,1.5,10.1,8.6,11.5,9.8c1.1-0.5,6.1-2.7,12.9-4.2c-0.6-3.6-2.8-6.9-6.1-9.7
					c-4.7,2-10.4,3-15.9,0.3c0,0-3-1.4-6-1.4c-4.4,0.1-6.3,2-8.4,4L21.5,79.1z"/>
				<path fill="#FFFFFF" d="M47.3,88c-0.1-0.1-9.5-8.3-11.7-9.9c-1.2-0.9-1.9-1.2-2.6-1.3c-0.4,0-0.9,0-1.3,0.1
					c-1,0.3-2.3,1.1-3.4,2.1c-1.2,1-2.3,1.8-3.4,2.1c-1.3,0.3-3-0.1-3.7-0.6c-0.3-0.2-0.5-0.4-0.6-0.7c-0.3-0.6,0.2-1.1,0.3-1.2
					l2.6-2.8c0.3-0.3,0.6-0.6,0.9-0.9c-0.8,0.1-1.6,0.3-2.4,0.5c-0.9,0.3-1.8,0.5-2.8,0.5c-0.4,0-2.4-0.3-2.8-0.4
					c-2.4-0.6-4.4-1.3-7.5-2.7c-3.7,2.8-6.2,6.2-6.9,10c0.5,0.1,1.4,0.4,1.7,0.5c8.4,1.9,11,3.8,11.4,4.2c0.5-0.6,1.2-0.9,2.1-0.9
					c0.9,0,1.8,0.5,2.3,1.2c0.5-0.4,1.1-0.7,2-0.7c0.4,0,0.8,0.1,1.2,0.2c0.9,0.3,1.4,1,1.7,1.5c0.3-0.1,0.7-0.2,1.2-0.2
					c0.5,0,0.9,0.1,1.4,0.3c1.5,0.7,1.8,2.2,1.6,3.3c0.1,0,0.2,0,0.3,0c1.8,0,3.3,1.5,3.3,3.3c0,0.6-0.1,1.1-0.4,1.6
					c0.5,0.3,1.8,0.9,2.9,0.8c0.9-0.1,1.2-0.4,1.3-0.6c0.1-0.1,0.2-0.3,0.1-0.4l-2.4-2.6c0,0-0.4-0.4-0.3-0.5
					c0.1-0.1,0.4,0.1,0.5,0.2c1.2,1,2.7,2.5,2.7,2.5c0,0,0.1,0.2,0.7,0.3c0.5,0.1,1.3,0,1.9-0.4c0.1-0.1,0.3-0.3,0.4-0.4
					c0,0,0,0,0,0c0.6-0.8-0.1-1.6-0.1-1.6L37,91.2c0,0-0.4-0.4-0.3-0.5c0.1-0.1,0.4,0.1,0.5,0.2c0.9,0.7,2.1,2,3.3,3.1
					c0.2,0.2,1.3,0.8,2.6-0.1c0.8-0.5,1-1.2,1-1.7c-0.1-0.7-0.6-1.1-0.6-1.1l-3.8-3.8c0,0-0.4-0.3-0.3-0.5c0.1-0.1,0.4,0.1,0.5,0.2
					c1.2,1,4.4,4,4.4,4c0,0,1.2,0.8,2.6-0.1c0.5-0.3,0.8-0.8,0.8-1.3C48,88.5,47.3,88,47.3,88z"/>
				<path fill="#FFFFFF" d="M29,92.8c-0.6,0-1.2,0.3-1.3,0.3c0,0,0-0.3,0.1-0.4c0.1-0.1,0.8-2.4-1-3.2c-1.4-0.6-2.3,0.1-2.6,0.4
					c-0.1,0.1-0.1,0.1-0.1,0c0-0.4-0.2-1.5-1.5-1.9c-1.8-0.5-2.9,0.7-3.2,1.1c-0.1-1-1-1.8-2-1.8c-1.1,0-2.1,0.9-2.1,2.1
					c0,1.1,0.9,2.1,2.1,2.1c0.6,0,1.1-0.2,1.4-0.6c0,0,0,0,0,0.1c-0.1,0.5-0.2,2.4,1.7,3.1c0.8,0.3,1.4,0.1,2-0.3
					c0.2-0.1,0.2-0.1,0.2,0.1c-0.1,0.5,0,1.5,1.4,2.1c1.1,0.4,1.7,0,2.1-0.4c0.2-0.2,0.2-0.1,0.2,0.1c0.1,1.4,1.2,2.5,2.6,2.5
					c1.4,0,2.6-1.2,2.6-2.6C31.6,93.9,30.5,92.8,29,92.8z"/>
			</g>
			<path fill="#11159A" d="M47.7,87c-2.9-2.5-9.6-8.4-11.4-9.7c-1-0.8-1.7-1.2-2.4-1.4c-0.3-0.1-0.7-0.2-1.2-0.2
				c-0.5,0-1,0.1-1.5,0.2c-1.2,0.4-2.3,1.3-3.5,2.2l-0.1,0c-1.1,0.8-2.1,1.7-3,1.9c-0.4,0.1-0.7,0.1-1.1,0.1c-0.9,0-1.8-0.3-2.1-0.7
				c-0.1-0.1,0-0.2,0.1-0.3l0,0l2.6-2.8c2-2,3.9-3.9,8.2-4c0.1,0,0.1,0,0.2,0c2.7,0,5.4,1.2,5.7,1.4c2.5,1.2,5.2,1.9,7.8,1.9
				c2.7,0,5.6-0.7,8.6-2c-0.3-0.3-0.7-0.6-1-0.8c-2.6,1.1-5.1,1.7-7.5,1.7c-2.5,0-4.9-0.6-7.3-1.8c-0.1-0.1-3.1-1.5-6.2-1.5
				c-0.1,0-0.2,0-0.2,0c-3.7,0.1-5.7,1.4-7.1,2.5c-1.3,0-2.5,0.4-3.5,0.6c-0.9,0.3-1.7,0.5-2.5,0.5c-0.3,0-0.9,0-0.9,0
				c-0.9,0-5.4-1.1-9-2.5c-0.4,0.3-0.7,0.5-1.1,0.8c3.7,1.5,8.3,2.7,9.7,2.8c0.4,0,0.8,0.1,1.3,0.1c0.9,0,1.9-0.3,2.8-0.5
				c0.5-0.2,1.1-0.3,1.8-0.4c-0.2,0.2-0.3,0.3-0.5,0.5l-2.6,2.8c-0.2,0.2-0.6,0.8-0.4,1.4c0.1,0.3,0.4,0.5,0.7,0.8
				c0.6,0.4,1.7,0.7,2.8,0.7c0.4,0,0.8,0,1.1-0.1c1.1-0.2,2.2-1.2,3.4-2.1c1-0.8,2.3-1.7,3.4-2c0.3-0.1,0.7-0.1,0.9-0.1
				c0.1,0,0.2,0,0.2,0c0.7,0.1,1.4,0.3,2.6,1.2c2.1,1.6,11.6,9.8,11.6,9.9c0,0,0.6,0.5,0.6,1.4c0,0.5-0.3,0.9-0.8,1.2
				c-0.4,0.3-0.8,0.4-1.2,0.4c-0.6,0-1.1-0.3-1.1-0.3c0,0-3.3-3-4.5-4c-0.2-0.2-0.4-0.3-0.6-0.3c-0.1,0-0.2,0-0.2,0.1
				c-0.2,0.2,0,0.5,0.3,0.8l3.8,3.8c0,0,0.5,0.4,0.5,1c0,0.6-0.3,1.2-0.9,1.6c-0.4,0.3-0.9,0.4-1.3,0.4c-0.6,0-1-0.3-1.1-0.3
				l-0.5-0.5c-1-1-2-2-2.8-2.6c-0.2-0.2-0.4-0.3-0.6-0.3c-0.1,0-0.2,0-0.2,0.1c-0.1,0.1-0.1,0.3,0.1,0.5c0.1,0.1,0.2,0.2,0.2,0.2
				l2.8,3.1c0,0,0.6,0.7,0.1,1.3l-0.1,0.1c-0.1,0.1-0.2,0.2-0.3,0.2c-0.5,0.4-1.1,0.4-1.3,0.4c-0.1,0-0.3,0-0.4,0
				c-0.3,0-0.5-0.1-0.5-0.2l0,0c-0.2-0.2-1.5-1.6-2.7-2.5c-0.2-0.1-0.3-0.3-0.5-0.3c-0.1,0-0.2,0-0.2,0.1c-0.2,0.2,0.1,0.6,0.3,0.8
				l2.3,2.6c0,0,0,0.1-0.1,0.2c-0.1,0.1-0.4,0.4-1.2,0.5c-0.1,0-0.2,0-0.3,0c-0.9,0-1.8-0.4-2.3-0.7c0.2-0.5,0.3-1,0.3-1.5
				c0-1.9-1.6-3.5-3.5-3.5c0,0-0.1,0-0.1,0c0.1-0.9-0.1-2.6-1.8-3.3c-0.5-0.2-1-0.3-1.5-0.3c-0.4,0-0.7,0.1-1.1,0.2
				c-0.4-0.7-0.9-1.2-1.7-1.5c-0.4-0.1-0.8-0.2-1.3-0.2c-0.7,0-1.4,0.2-2,0.6c-0.6-0.7-1.4-1.1-2.3-1.1c-0.8,0-1.5,0.3-2.1,0.9
				c-0.7-0.6-3.6-2.4-11.4-4.2c-0.4-0.1-1.2-0.3-1.8-0.5c-0.1,0.4-0.2,0.8-0.2,1.3c0,0,1.4,0.3,1.7,0.4c7.9,1.8,10.5,3.6,11,3.9
				c-0.1,0.4-0.2,0.7-0.2,1.1c0,1.6,1.3,3,3,3c0.2,0,0.4,0,0.5,0c0.2,1.2,1,2.1,2.2,2.6c0.4,0.1,0.7,0.2,1.1,0.2
				c0.2,0,0.5,0,0.7-0.1c0.2,0.6,0.7,1.3,1.8,1.7c0.4,0.2,0.8,0.2,1.2,0.2c0.3,0,0.6-0.1,0.9-0.2c0.5,1.3,1.8,2.2,3.2,2.2
				c0.9,0,1.8-0.4,2.5-1.1c0.6,0.3,1.8,0.9,3,0.9c0.2,0,0.3,0,0.4,0c1.2-0.2,1.8-0.6,2-1c0-0.1,0.1-0.1,0.1-0.2
				c0.3,0.1,0.6,0.1,0.9,0.1c0.7,0,1.3-0.2,1.9-0.7c0.6-0.4,1.1-1.1,1.1-1.6c0,0,0,0,0,0c0.2,0,0.4,0.1,0.6,0.1c0.7,0,1.3-0.2,2-0.6
				c1.2-0.8,1.4-1.8,1.4-2.5c0.2,0,0.4,0.1,0.6,0.1c0.6,0,1.3-0.2,1.8-0.6c0.8-0.5,1.2-1.2,1.3-2.1c0-0.6-0.1-1.2-0.4-1.7
				c2-0.9,6.7-2.6,12.2-3.8c0-0.4-0.1-0.8-0.2-1.3C53.9,84.3,48.9,86.4,47.7,87z M29,97.7c-1.3,0-2.3-1-2.4-2.3c0-0.1,0-0.4-0.3-0.4
				c-0.1,0-0.2,0.1-0.3,0.2c-0.3,0.3-0.6,0.5-1.2,0.5c-0.2,0-0.5-0.1-0.8-0.2c-1.4-0.6-1.4-1.5-1.3-1.9c0-0.1,0-0.2,0-0.3l-0.1-0.1
				h-0.1c-0.1,0-0.1,0-0.2,0.1c-0.4,0.3-0.8,0.4-1.2,0.4c-0.2,0-0.4,0-0.6-0.1c-1.8-0.7-1.7-2.4-1.6-2.9c0-0.1,0-0.2-0.1-0.2
				l-0.1-0.1l-0.1,0.1c-0.4,0.3-0.8,0.5-1.3,0.5c-1,0-1.9-0.8-1.9-1.9c0-1,0.8-1.9,1.9-1.9c0.9,0,1.7,0.7,1.8,1.6l0.1,0.5l0.3-0.4
				c0,0,0.8-1.2,2.2-1.2c0.3,0,0.5,0,0.8,0.1c1.1,0.3,1.3,1.3,1.3,1.8c0,0.2,0.2,0.3,0.2,0.3c0.1,0,0.2-0.1,0.2-0.1
				c0.2-0.2,0.7-0.6,1.4-0.6c0.3,0,0.7,0.1,1,0.2c1.8,0.8,1,3,1,3c-0.2,0.4-0.2,0.5,0,0.6l0.1,0h0.1c0.1,0,0.2,0,0.3-0.1
				c0.2-0.1,0.6-0.2,0.9-0.2h0c1.3,0,2.4,1.1,2.4,2.4C31.4,96.7,30.4,97.7,29,97.7z"/>
		</g>
		<g>
			<path fill="#11159A" d="M166.1,72.3c-1.1-1.4-2.8-2.1-5-2.1c-2.2,0-3.9,0.7-5,2.1c-1.1,1.4-1.7,3-1.7,4.9c0,1.9,0.6,3.6,1.7,4.9
				c1.1,1.4,2.8,2,5,2c2.2,0,3.9-0.7,5-2c1.1-1.4,1.7-3,1.7-4.9C167.8,75.3,167.3,73.7,166.1,72.3z M163.4,80.2
				c-0.5,0.7-1.3,1.1-2.3,1.1c-1,0-1.8-0.4-2.3-1.1c-0.5-0.7-0.8-1.7-0.8-3c0-1.3,0.3-2.3,0.8-3c0.5-0.7,1.3-1.1,2.3-1.1
				c1,0,1.8,0.4,2.3,1.1c0.5,0.7,0.8,1.7,0.8,3C164.2,78.5,163.9,79.5,163.4,80.2z"/>
			<path fill="#11159A" d="M137.9,71.1c-1.1-0.6-2.4-0.9-3.8-0.9c-2.2,0-3.8,0.6-4.7,1.7c-0.6,0.7-0.9,1.7-1,2.8h3.3
				c0.1-0.5,0.2-0.9,0.5-1.2c0.3-0.4,0.9-0.6,1.7-0.6c0.7,0,1.3,0.1,1.7,0.3c0.4,0.2,0.6,0.6,0.6,1.1c0,0.4-0.2,0.8-0.7,1
				c-0.3,0.1-0.7,0.2-1.4,0.3l-1.2,0.1c-1.3,0.2-2.3,0.5-3,0.8c-1.3,0.7-1.9,1.9-1.9,3.5c0,1.2,0.4,2.2,1.2,2.9c0.8,0.7,1.8,1,3,1
				c7.5,0.3,7.4-3.9,7.5-4.8v-4.9C139.6,72.8,139,71.7,137.9,71.1z M136.2,78.6c0,1.1-0.4,1.9-1,2.4c-0.6,0.4-1.3,0.7-2.1,0.7
				c-0.5,0-0.9-0.1-1.2-0.4c-0.3-0.3-0.5-0.7-0.5-1.3c0-0.7,0.3-1.1,0.8-1.5c0.3-0.2,0.8-0.3,1.6-0.5l0.8-0.1
				c0.4-0.1,0.7-0.2,0.9-0.2c0.2-0.1,0.4-0.2,0.7-0.3V78.6z"/>
			<path fill="#11159A" d="M120.8,73.2c0.9,0,1.5,0.3,1.9,0.8c0.3,0.4,0.5,0.8,0.5,1.3h3.7c-0.2-1.9-0.9-3.2-2-3.9
				c-1.1-0.7-2.5-1.1-4.3-1.1c-2,0-3.6,0.6-4.8,1.9c-1.2,1.2-1.7,3-1.7,5.2c0,2,0.5,3.6,1.6,4.9c1,1.2,2.7,1.9,4.9,1.9
				c2.2,0,3.9-0.7,5-2.2c0.7-0.9,1.1-1.9,1.2-3h-3.7c-0.1,0.7-0.3,1.2-0.6,1.7c-0.4,0.4-1,0.6-1.8,0.6c-1.2,0-2-0.5-2.4-1.6
				c-0.2-0.6-0.4-1.4-0.4-2.3c0-1,0.1-1.8,0.4-2.4C118.8,73.8,119.6,73.2,120.8,73.2z"/>
			<path fill="#11159A" d="M113.2,70.3c-7.6,0-7.1,6.7-7.1,6.7v6.8h3.4v-6.4c0-1,0.1-1.8,0.4-2.3c0.5-0.9,1.4-1.3,2.8-1.3
				c0.1,0,0.2,0,0.4,0c0.2,0,0.4,0,0.6,0v-3.5c-0.2,0-0.3,0-0.3,0C113.4,70.3,113.3,70.3,113.2,70.3z"/>
			<path fill="#11159A" d="M100.6,80.3c-0.1,0.2-0.3,0.4-0.5,0.5c-0.5,0.4-1.1,0.5-1.9,0.5c-0.7,0-1.3-0.1-1.8-0.4
				c-0.9-0.5-1.3-1.4-1.4-2.7h9.5c0-1.1,0-2-0.1-2.6c-0.2-1-0.5-1.9-1-2.7c-0.6-0.9-1.4-1.5-2.3-1.9c-0.9-0.4-1.9-0.6-3.1-0.6
				c-1.9,0-3.5,0.6-4.7,1.8c-1.2,1.2-1.8,2.9-1.8,5.2c0,2.4,0.7,4.2,2,5.2c1.3,1.1,2.9,1.6,4.6,1.6c2.1,0,3.8-0.6,4.9-1.9
				c0.6-0.7,1-1.3,1.2-2H100.6z M95.9,73.9c0.5-0.5,1.2-0.7,2-0.7c0.8,0,1.5,0.2,2,0.7c0.5,0.5,0.8,1.2,0.9,2.1H95
				C95.2,75,95.5,74.4,95.9,73.9z"/>
			<g>
				<path fill="#11159A" d="M90.1,83.8H87v-7.9c0-0.7-0.2-2.4-2.3-2.4c-1.4,0-2.4,1-2.4,2.4v7.9h-3.1v-7.9c0-0.7-0.2-2.4-2.3-2.4
					c-1.4,0-2.4,1-2.4,2.4v7.9h-3.1V76c0-3.3,2.2-5.7,5.5-5.7c1.7,0,3,0.7,3.9,1.8c0.9-1.1,2.3-1.8,3.9-1.8c3.4,0,5.5,2.4,5.5,5.7
					V83.8z"/>
			</g>
			<path fill="#11159A" d="M153.4,66.2c0,0-3.5-0.4-3.5,2.4l0,3.7c-0.4-0.6-0.9-1.1-1.5-1.4c-0.6-0.3-1.3-0.5-2.1-0.5
				c-1.7,0-3.1,0.6-4.1,1.9c-1,1.3-1.5,3.1-1.5,5.4c0,1.9,0.5,3.5,1.6,4.8c1,1.2,3.1,1.8,4.9,1.8c6.3,0,6.3-5.4,6.3-5.4L153.4,66.2z
				 M149.3,80.2c-0.5,0.7-1.2,1.1-2.2,1.1c-1,0-1.7-0.4-2.2-1.1c-0.5-0.7-0.7-1.8-0.7-3c0-1.1,0.2-2.1,0.7-2.8
				c0.5-0.8,1.2-1.1,2.2-1.1c0.7,0,1.2,0.2,1.7,0.6c0.8,0.7,1.2,1.9,1.2,3.5C150,78.6,149.8,79.5,149.3,80.2z"/>
		</g>
		<g>
			<g>
				<path fill="#009BDB" d="M96.5,105.7c0,0.5-0.2,0.9-0.5,1.2c-0.3,0.3-0.7,0.5-1.2,0.5H93v-12c0-2.3,0.8-3.8,2.1-4.8
					c0.9-0.7,2.1-1.3,4.5-1.3c1.6,0,3.5,0.6,4.5,1.9c1.1,1.4,1.6,2.9,1.6,5c0,2.1-0.5,3.8-1.5,5.1c-1,1.3-2.3,1.9-3.9,1.9
					c-0.8,0-1.6-0.2-2.2-0.4c-0.7-0.3-1.2-0.8-1.6-1.5V105.7z M102.2,96.4c0-1.3-0.3-2.3-0.8-3c-0.5-0.7-1.2-1-2.2-1
					c-0.9,0-1.6,0.4-2.1,1c-0.5,0.6-0.7,1.6-0.7,3c0,1.3,0.3,2.2,0.8,2.8c0.5,0.7,1.2,1,2.2,1c0.9,0,1.6-0.3,2.1-1
					C102,98.5,102.2,97.6,102.2,96.4"/>
				<path fill="#009BDB" d="M128.5,102.1v-0.8c-0.6,0.9-1.4,1.5-2.4,1.7c-1,0.2-2,0.1-3-0.3c-1-0.4-1.9-1.1-2.6-2.2
					c-0.7-1.1-1.1-2.5-1.1-4.3c0-2.1,0.5-3.7,1.4-5c0.9-1.3,2.5-1.9,4.6-1.9c2.1-0.1,3.3,0.4,4.4,1.3c1.3,1,2,2.5,2,4.8v7
					c0,2.2-1.6,6.4-6.5,6c-3-0.2-4.7-1.5-5.7-4.3h3.6c0.3,0.5,0.7,0.8,1.2,1.1c0.5,0.3,1.1,0.3,1.6,0.2c0.5-0.1,1-0.4,1.5-1
					C128.2,104,128.5,103.2,128.5,102.1 M122.9,96.4c0,2.3,0.7,3.6,2,3.8c1.3,0.2,2.3-0.1,2.9-0.9c0.3-0.4,0.5-0.9,0.6-1.7
					c0.1-0.8,0.1-1.6,0-2.3c-0.1-0.8-0.4-1.4-0.8-2c-0.4-0.6-1.1-0.9-1.9-0.9c-1.1,0-1.9,0.4-2.3,1.2
					C123.1,94.4,122.9,95.3,122.9,96.4"/>
				<path fill="#009BDB" d="M116.5,90.3c-1.1-0.6-2.4-0.9-3.8-0.9c-2.2,0-3.8,0.6-4.7,1.7c-0.6,0.7-0.9,1.7-1,2.8h3.3
					c0.1-0.5,0.2-0.9,0.5-1.2c0.3-0.4,0.9-0.6,1.7-0.6c0.7,0,1.3,0.1,1.7,0.3c0.4,0.2,0.6,0.6,0.6,1.1c0,0.4-0.2,0.8-0.7,1
					c-0.3,0.1-0.7,0.2-1.4,0.3l-1.2,0.1c-1.3,0.2-2.3,0.5-3,0.8c-1.3,0.7-1.9,1.9-1.9,3.5c0,1.2,0.4,2.2,1.2,2.9c0.8,0.7,1.8,1,3,1
					c7.5,0.3,7.4-3.9,7.5-4.8v-4.9C118.2,91.9,117.7,90.9,116.5,90.3 M114.8,97.8c0,1.1-0.4,1.9-1,2.4c-0.6,0.4-1.3,0.6-2.1,0.6
					c-0.5,0-0.9-0.1-1.2-0.4c-0.3-0.3-0.5-0.7-0.5-1.3c0-0.7,0.3-1.1,0.8-1.5c0.3-0.2,0.8-0.3,1.6-0.5l0.8-0.1
					c0.4-0.1,0.7-0.2,0.9-0.2c0.2-0.1,0.4-0.2,0.7-0.3V97.8z"/>
				<path fill="#009BDB" d="M145,91.4c-1.1-1.4-2.8-2.1-5-2.1c-2.2,0-3.9,0.7-5,2.1c-1.1,1.4-1.7,3-1.7,4.9c0,1.9,0.6,3.6,1.7,4.9
					c1.1,1.4,2.8,2,5,2c2.2,0,3.9-0.7,5-2c1.1-1.4,1.7-3,1.7-4.9C146.6,94.4,146.1,92.8,145,91.4 M142.2,99.3
					c-0.5,0.7-1.3,1.1-2.3,1.1s-1.8-0.4-2.3-1.1c-0.5-0.7-0.8-1.7-0.8-3c0-1.3,0.3-2.3,0.8-3c0.5-0.7,1.3-1.1,2.3-1.1
					s1.8,0.4,2.3,1.1c0.5,0.7,0.8,1.7,0.8,3C143,97.6,142.8,98.6,142.2,99.3"/>
			</g>
		</g>
	</g>
	<g>
		<g>
			<g>
				<g>
					<g>
						<path fill="#5599DB" d="M128.9,9.1h-9.2c-0.6,0-1.2,0.5-1.3,1.1l-3.7,23.6c-0.1,0.5,0.3,0.9,0.8,0.9h4.7
							c0.4,0,0.8-0.3,0.9-0.8l1.1-6.7c0.1-0.6,0.6-1.1,1.3-1.1h2.9c6.1,0,9.6-2.9,10.5-8.8c0.4-2.5,0-4.5-1.2-5.9
							C134.3,9.9,132,9.1,128.9,9.1z M130,17.7c-0.5,3.3-3,3.3-5.5,3.3h-1.4l1-6.2c0.1-0.4,0.4-0.6,0.8-0.6h0.6c1.7,0,3.2,0,4,0.9
							C130,15.7,130.2,16.5,130,17.7z"/>
						<path fill="#003383" d="M63.3,9.1h-9.2c-0.6,0-1.2,0.5-1.3,1.1l-3.7,23.6c-0.1,0.5,0.3,0.9,0.8,0.9h4.4c0.6,0,1.2-0.5,1.3-1.1
							l1-6.4c0.1-0.6,0.6-1.1,1.3-1.1h2.9c6.1,0,9.6-2.9,10.5-8.8c0.4-2.5,0-4.5-1.2-5.9C68.7,9.9,66.4,9.1,63.3,9.1z M64.3,17.7
							c-0.5,3.3-3,3.3-5.5,3.3h-1.4l1-6.2c0.1-0.4,0.4-0.6,0.8-0.6h0.6c1.7,0,3.2,0,4,0.9C64.4,15.7,64.5,16.5,64.3,17.7z"/>
						<path fill="#003383" d="M90.8,17.6h-4.4c-0.4,0-0.7,0.3-0.8,0.6l-0.2,1.2L85.1,19c-1-1.4-3.1-1.8-5.2-1.8
							c-4.9,0-9,3.7-9.8,8.9c-0.4,2.6,0.2,5.1,1.6,6.8c1.3,1.6,3.3,2.2,5.6,2.2c3.9,0,6.1-2.5,6.1-2.5l-0.2,1.2
							c-0.1,0.5,0.3,0.9,0.8,0.9h4c0.6,0,1.2-0.5,1.3-1.1l2.4-15.1C91.6,18,91.3,17.6,90.8,17.6z M84.7,26.2c-0.4,2.5-2.4,4.2-5,4.2
							c-1.3,0-2.3-0.4-3-1.2c-0.7-0.8-0.9-1.9-0.7-3.1c0.4-2.5,2.4-4.2,4.9-4.2c1.3,0,2.3,0.4,2.9,1.2C84.6,23.9,84.8,25,84.7,26.2z
							"/>
						<path fill="#5599DB" d="M156.5,17.6h-4.4c-0.4,0-0.7,0.3-0.8,0.6l-0.2,1.2l-0.3-0.4c-1-1.4-3.1-1.8-5.2-1.8
							c-4.9,0-9,3.7-9.8,8.9c-0.4,2.6,0.2,5.1,1.6,6.8c1.3,1.6,3.3,2.2,5.6,2.2c3.9,0,6.1-2.5,6.1-2.5l-0.2,1.2
							c-0.1,0.5,0.3,0.9,0.8,0.9h4c0.6,0,1.2-0.5,1.3-1.1l2.4-15.1C157.3,18,156.9,17.6,156.5,17.6z M150.3,26.2
							c-0.4,2.5-2.4,4.2-5,4.2c-1.3,0-2.3-0.4-3-1.2c-0.7-0.8-0.9-1.9-0.7-3.1c0.4-2.5,2.4-4.2,4.9-4.2c1.3,0,2.3,0.4,2.9,1.2
							C150.3,23.9,150.5,25,150.3,26.2z"/>
						<path fill="#003383" d="M114.3,17.6h-4.4c-0.4,0-0.8,0.2-1.1,0.6l-6.1,9l-2.6-8.7c-0.2-0.5-0.7-0.9-1.2-0.9h-4.4
							c-0.5,0-0.9,0.5-0.7,1l4.9,14.3l-4.6,6.5c-0.4,0.5,0,1.2,0.6,1.2h4.4c0.4,0,0.8-0.2,1.1-0.6l14.7-21.3
							C115.3,18.3,114.9,17.6,114.3,17.6z"/>
						<path fill="#5599DB" d="M161.7,9.7l-3.8,24c-0.1,0.5,0.3,0.9,0.8,0.9h3.8c0.6,0,1.2-0.5,1.3-1.1l3.7-23.6
							c0.1-0.5-0.3-0.9-0.8-0.9h-4.3C162,9.1,161.7,9.4,161.7,9.7z"/>
					</g>
				</g>
			</g>
		</g>
		<g>
			<path fill="#5599DB" d="M31,10.3c0.5-3.2,0-5.3-1.7-7.3C27.4,0.9,24,0,19.7,0H7.1C6.2,0,5.4,0.6,5.3,1.5L0,34.9
				c-0.1,0.7,0.4,1.3,1.1,1.3h7.8l-0.5,3.4c-0.1,0.6,0.4,1.1,0.9,1.1h6.6c0.8,0,1.4-0.6,1.6-1.3l0.1-0.3l1.2-7.8l0.1-0.4
				c0.1-0.8,0.8-1.3,1.6-1.3h1c6.4,0,11.3-2.6,12.8-10.1c0.6-3.1,0.3-5.7-1.3-7.6C32.3,11.2,31.7,10.7,31,10.3L31,10.3"/>
			<path fill="#162667" d="M31,10.3c0.5-3.2,0-5.3-1.7-7.3C27.4,0.9,24,0,19.7,0H7.1C6.2,0,5.4,0.6,5.3,1.5L0,34.9
				c-0.1,0.7,0.4,1.3,1.1,1.3h7.8l2-12.4l-0.1,0.4c0.1-0.9,0.9-1.5,1.8-1.5h3.7c7.3,0,13-3,14.6-11.5C30.9,10.8,31,10.6,31,10.3"/>
			<path fill="#003383" d="M12.9,10.4c0.1-0.5,0.4-1,0.9-1.2C14,9.1,14.3,9,14.5,9h9.9c1.2,0,2.3,0.1,3.3,0.2c0.3,0,0.6,0.1,0.8,0.2
				c0.3,0.1,0.5,0.1,0.8,0.2c0.1,0,0.3,0.1,0.4,0.1c0.5,0.2,0.9,0.4,1.4,0.6c0.5-3.2,0-5.3-1.7-7.3C27.4,0.9,24,0,19.7,0H7.1
				C6.2,0,5.4,0.6,5.3,1.5L0,34.9c-0.1,0.7,0.4,1.3,1.1,1.3h7.8l2-12.4L12.9,10.4z"/>
		</g>
	</g>
	<g>
		<g>
			<path fill="#2D2D2D" d="M260.1,85c0-11-13.7-20-30.6-20c-16.9,0-30.6,9-30.6,20c0,0.3,0,1.1,0,1.2c0,11.7,12,21.2,30.6,21.2
				c18.7,0,30.6-9.5,30.6-21.2C260.1,85.8,260.1,85.5,260.1,85z"/>
			<ellipse fill="#B2B2B2" cx="229.5" cy="85" rx="29.4" ry="18.8"/>
			<g>
				<path fill="#FFFFFF" d="M219.7,79.1c0,0-0.3,0.3-0.1,0.6c0.5,0.6,1.9,0.9,3.3,0.6c0.9-0.2,2-1.1,3-1.9c1.2-0.9,2.3-1.8,3.5-2.2
					c1.2-0.4,2-0.2,2.5-0.1c0.6,0.2,1.2,0.5,2.3,1.3c2,1.5,10.1,8.6,11.5,9.8c1.1-0.5,6.1-2.7,12.9-4.2c-0.6-3.6-2.8-6.9-6.1-9.7
					c-4.7,2-10.4,3-15.9,0.3c0,0-3-1.4-6-1.4c-4.4,0.1-6.3,2-8.4,4L219.7,79.1z"/>
				<path fill="#FFFFFF" d="M245.5,88c-0.1-0.1-9.5-8.3-11.7-9.9c-1.2-0.9-1.9-1.2-2.6-1.3c-0.4,0-0.9,0-1.3,0.1
					c-1,0.3-2.3,1.1-3.4,2.1c-1.2,1-2.3,1.8-3.4,2.1c-1.3,0.3-3-0.1-3.7-0.6c-0.3-0.2-0.5-0.4-0.6-0.7c-0.3-0.6,0.2-1.1,0.3-1.2
					l2.6-2.8c0.3-0.3,0.6-0.6,0.9-0.9c-0.8,0.1-1.6,0.3-2.4,0.5c-0.9,0.3-1.8,0.5-2.8,0.5c-0.4,0-2.4-0.3-2.8-0.4
					c-2.4-0.6-4.4-1.3-7.5-2.7c-3.7,2.8-6.2,6.2-6.9,10c0.5,0.1,1.4,0.4,1.7,0.5c8.4,1.9,11,3.8,11.4,4.2c0.5-0.6,1.2-0.9,2.1-0.9
					c0.9,0,1.8,0.5,2.3,1.2c0.5-0.4,1.1-0.7,2-0.7c0.4,0,0.8,0.1,1.2,0.2c0.9,0.3,1.4,1,1.7,1.5c0.3-0.1,0.7-0.2,1.2-0.2
					c0.5,0,0.9,0.1,1.4,0.3c1.5,0.7,1.8,2.2,1.6,3.3c0.1,0,0.2,0,0.3,0c1.8,0,3.3,1.5,3.3,3.3c0,0.6-0.1,1.1-0.4,1.6
					c0.5,0.3,1.8,0.9,2.9,0.8c0.9-0.1,1.2-0.4,1.3-0.6c0.1-0.1,0.2-0.3,0.1-0.4l-2.4-2.6c0,0-0.4-0.4-0.3-0.5
					c0.1-0.1,0.4,0.1,0.5,0.2c1.2,1,2.7,2.5,2.7,2.5c0,0,0.1,0.2,0.7,0.3c0.5,0.1,1.3,0,1.9-0.4c0.1-0.1,0.3-0.3,0.4-0.4
					c0,0,0,0,0,0c0.6-0.8-0.1-1.6-0.1-1.6l-2.8-3.1c0,0-0.4-0.4-0.3-0.5c0.1-0.1,0.4,0.1,0.5,0.2c0.9,0.7,2.1,2,3.3,3.1
					c0.2,0.2,1.3,0.8,2.6-0.1c0.8-0.5,1-1.2,1-1.7c-0.1-0.7-0.6-1.1-0.6-1.1l-3.8-3.8c0,0-0.4-0.3-0.3-0.5c0.1-0.1,0.4,0.1,0.5,0.2
					c1.2,1,4.4,4,4.4,4c0,0,1.2,0.8,2.6-0.1c0.5-0.3,0.8-0.8,0.8-1.3C246.2,88.5,245.5,88,245.5,88z"/>
				<path fill="#FFFFFF" d="M227.2,92.8c-0.6,0-1.2,0.3-1.3,0.3c0,0,0-0.3,0.1-0.4c0.1-0.1,0.8-2.4-1-3.2c-1.4-0.6-2.3,0.1-2.6,0.4
					c-0.1,0.1-0.1,0.1-0.1,0c0-0.4-0.2-1.5-1.5-1.9c-1.8-0.5-2.9,0.7-3.2,1.1c-0.1-1-1-1.8-2-1.8c-1.1,0-2.1,0.9-2.1,2.1
					c0,1.1,0.9,2.1,2.1,2.1c0.6,0,1.1-0.2,1.4-0.6c0,0,0,0,0,0.1c-0.1,0.5-0.2,2.4,1.7,3.1c0.8,0.3,1.4,0.1,2-0.3
					c0.2-0.1,0.2-0.1,0.2,0.1c-0.1,0.5,0,1.5,1.4,2.1c1.1,0.4,1.7,0,2.1-0.4c0.2-0.2,0.2-0.1,0.2,0.1c0.1,1.4,1.2,2.5,2.6,2.5
					c1.4,0,2.6-1.2,2.6-2.6C229.8,93.9,228.7,92.8,227.2,92.8z"/>
			</g>
			<path fill="#2D2D2D" d="M245.9,87c-2.9-2.5-9.6-8.4-11.4-9.7c-1-0.8-1.7-1.2-2.4-1.4c-0.3-0.1-0.7-0.2-1.2-0.2
				c-0.5,0-1,0.1-1.5,0.2c-1.2,0.4-2.3,1.3-3.5,2.2l-0.1,0c-1.1,0.8-2.1,1.7-3,1.9c-0.4,0.1-0.7,0.1-1.1,0.1c-0.9,0-1.8-0.3-2.1-0.7
				c-0.1-0.1,0-0.2,0.1-0.3l0,0l2.6-2.8c2-2,3.9-3.9,8.2-4c0.1,0,0.1,0,0.2,0c2.7,0,5.4,1.2,5.7,1.4c2.5,1.2,5.2,1.9,7.8,1.9
				c2.7,0,5.6-0.7,8.6-2c-0.3-0.3-0.7-0.6-1-0.8c-2.6,1.1-5.1,1.7-7.5,1.7c-2.5,0-4.9-0.6-7.3-1.8c-0.1-0.1-3.1-1.5-6.2-1.5
				c-0.1,0-0.2,0-0.2,0c-3.7,0.1-5.7,1.4-7.1,2.5c-1.3,0-2.5,0.4-3.5,0.6c-0.9,0.3-1.7,0.5-2.5,0.5c-0.3,0-0.9,0-0.9,0
				c-0.9,0-5.4-1.1-9-2.5c-0.4,0.3-0.7,0.5-1.1,0.8c3.7,1.5,8.3,2.7,9.7,2.8c0.4,0,0.8,0.1,1.3,0.1c0.9,0,1.9-0.3,2.8-0.5
				c0.5-0.2,1.1-0.3,1.8-0.4c-0.2,0.2-0.3,0.3-0.5,0.5l-2.6,2.8c-0.2,0.2-0.6,0.8-0.4,1.4c0.1,0.3,0.4,0.5,0.7,0.8
				c0.6,0.4,1.7,0.7,2.8,0.7c0.4,0,0.8,0,1.1-0.1c1.1-0.2,2.2-1.2,3.4-2.1c1-0.8,2.3-1.7,3.4-2c0.3-0.1,0.7-0.1,0.9-0.1
				c0.1,0,0.2,0,0.2,0c0.7,0.1,1.4,0.3,2.6,1.2c2.1,1.6,11.6,9.8,11.6,9.9c0,0,0.6,0.5,0.6,1.4c0,0.5-0.3,0.9-0.8,1.2
				c-0.4,0.3-0.8,0.4-1.2,0.4c-0.6,0-1.1-0.3-1.1-0.3c0,0-3.3-3-4.5-4c-0.2-0.2-0.4-0.3-0.6-0.3c-0.1,0-0.2,0-0.2,0.1
				c-0.2,0.2,0,0.5,0.3,0.8l3.8,3.8c0,0,0.5,0.4,0.5,1c0,0.6-0.3,1.2-0.9,1.6c-0.4,0.3-0.9,0.4-1.3,0.4c-0.6,0-1-0.3-1.1-0.3
				l-0.5-0.5c-1-1-2-2-2.8-2.6c-0.2-0.2-0.4-0.3-0.6-0.3c-0.1,0-0.2,0-0.2,0.1c-0.1,0.1-0.1,0.3,0.1,0.5c0.1,0.1,0.2,0.2,0.2,0.2
				l2.8,3.1c0,0,0.6,0.7,0.1,1.3l-0.1,0.1c-0.1,0.1-0.2,0.2-0.3,0.2c-0.5,0.4-1.1,0.4-1.3,0.4c-0.1,0-0.3,0-0.4,0
				c-0.3,0-0.5-0.1-0.5-0.2l0,0c-0.2-0.2-1.5-1.6-2.7-2.5c-0.2-0.1-0.3-0.3-0.5-0.3c-0.1,0-0.2,0-0.2,0.1c-0.2,0.2,0.1,0.6,0.3,0.8
				l2.3,2.6c0,0,0,0.1-0.1,0.2c-0.1,0.1-0.4,0.4-1.2,0.5c-0.1,0-0.2,0-0.3,0c-0.9,0-1.8-0.4-2.3-0.7c0.2-0.5,0.3-1,0.3-1.5
				c0-1.9-1.6-3.5-3.5-3.5c0,0-0.1,0-0.1,0c0.1-0.9-0.1-2.6-1.8-3.3c-0.5-0.2-1-0.3-1.5-0.3c-0.4,0-0.7,0.1-1.1,0.2
				c-0.4-0.7-0.9-1.2-1.7-1.5c-0.4-0.1-0.8-0.2-1.3-0.2c-0.7,0-1.4,0.2-2,0.6c-0.6-0.7-1.4-1.1-2.3-1.1c-0.8,0-1.5,0.3-2.1,0.9
				c-0.7-0.6-3.6-2.4-11.4-4.2c-0.4-0.1-1.2-0.3-1.8-0.5c-0.1,0.4-0.2,0.8-0.2,1.3c0,0,1.4,0.3,1.7,0.4c7.9,1.8,10.5,3.6,11,3.9
				c-0.1,0.4-0.2,0.7-0.2,1.1c0,1.6,1.3,3,3,3c0.2,0,0.4,0,0.5,0c0.2,1.2,1,2.1,2.2,2.6c0.4,0.1,0.7,0.2,1.1,0.2
				c0.2,0,0.5,0,0.7-0.1c0.2,0.6,0.7,1.3,1.8,1.7c0.4,0.2,0.8,0.2,1.2,0.2c0.3,0,0.6-0.1,0.9-0.2c0.5,1.3,1.8,2.2,3.2,2.2
				c0.9,0,1.8-0.4,2.5-1.1c0.6,0.3,1.8,0.9,3,0.9c0.2,0,0.3,0,0.4,0c1.2-0.2,1.8-0.6,2-1c0-0.1,0.1-0.1,0.1-0.2
				c0.3,0.1,0.6,0.1,0.9,0.1c0.7,0,1.3-0.2,1.9-0.7c0.6-0.4,1.1-1.1,1.1-1.6c0,0,0,0,0,0c0.2,0,0.4,0.1,0.6,0.1c0.7,0,1.3-0.2,2-0.6
				c1.2-0.8,1.4-1.8,1.4-2.5c0.2,0,0.4,0.1,0.6,0.1c0.6,0,1.3-0.2,1.8-0.6c0.8-0.5,1.2-1.2,1.3-2.1c0-0.6-0.1-1.2-0.4-1.7
				c2-0.9,6.7-2.6,12.2-3.8c0-0.4-0.1-0.8-0.2-1.3C252.1,84.3,247.1,86.4,245.9,87z M227.2,97.7c-1.3,0-2.3-1-2.4-2.3
				c0-0.1,0-0.4-0.3-0.4c-0.1,0-0.2,0.1-0.3,0.2c-0.3,0.3-0.6,0.5-1.2,0.5c-0.2,0-0.5-0.1-0.8-0.2c-1.4-0.6-1.4-1.5-1.3-1.9
				c0-0.1,0-0.2,0-0.3l-0.1-0.1h-0.1c-0.1,0-0.1,0-0.2,0.1c-0.4,0.3-0.8,0.4-1.2,0.4c-0.2,0-0.4,0-0.6-0.1c-1.8-0.7-1.7-2.4-1.6-2.9
				c0-0.1,0-0.2-0.1-0.2l-0.1-0.1l-0.1,0.1c-0.4,0.3-0.8,0.5-1.3,0.5c-1,0-1.9-0.8-1.9-1.9c0-1,0.8-1.9,1.9-1.9
				c0.9,0,1.7,0.7,1.8,1.6l0.1,0.5l0.3-0.4c0,0,0.8-1.2,2.2-1.2c0.3,0,0.5,0,0.8,0.1c1.1,0.3,1.3,1.3,1.3,1.8c0,0.2,0.2,0.3,0.2,0.3
				c0.1,0,0.2-0.1,0.2-0.1c0.2-0.2,0.7-0.6,1.4-0.6c0.3,0,0.7,0.1,1,0.2c1.8,0.8,1,3,1,3c-0.2,0.4-0.2,0.5,0,0.6l0.1,0h0.1
				c0.1,0,0.2,0,0.3-0.1c0.2-0.1,0.6-0.2,0.9-0.2h0c1.3,0,2.4,1.1,2.4,2.4C229.6,96.7,228.6,97.7,227.2,97.7z"/>
		</g>
		<g>
			<path fill="#2D2D2D" d="M364.3,72.3c-1.1-1.4-2.8-2.1-5-2.1c-2.2,0-3.9,0.7-5,2.1c-1.1,1.4-1.7,3-1.7,4.9c0,1.9,0.6,3.6,1.7,4.9
				c1.1,1.4,2.8,2,5,2c2.2,0,3.9-0.7,5-2c1.1-1.4,1.7-3,1.7-4.9C366,75.3,365.4,73.7,364.3,72.3z M361.6,80.2
				c-0.5,0.7-1.3,1.1-2.3,1.1c-1,0-1.8-0.4-2.3-1.1c-0.5-0.7-0.8-1.7-0.8-3c0-1.3,0.3-2.3,0.8-3c0.5-0.7,1.3-1.1,2.3-1.1
				c1,0,1.8,0.4,2.3,1.1c0.5,0.7,0.8,1.7,0.8,3C362.4,78.5,362.1,79.5,361.6,80.2z"/>
			<path fill="#2D2D2D" d="M336.1,71.1c-1.1-0.6-2.4-0.9-3.8-0.9c-2.2,0-3.8,0.6-4.7,1.7c-0.6,0.7-0.9,1.7-1,2.8h3.3
				c0.1-0.5,0.2-0.9,0.5-1.2c0.3-0.4,0.9-0.6,1.7-0.6c0.7,0,1.3,0.1,1.7,0.3c0.4,0.2,0.6,0.6,0.6,1.1c0,0.4-0.2,0.8-0.7,1
				c-0.3,0.1-0.7,0.2-1.4,0.3l-1.2,0.1c-1.3,0.2-2.3,0.5-3,0.8c-1.3,0.7-1.9,1.9-1.9,3.5c0,1.2,0.4,2.2,1.2,2.9c0.8,0.7,1.8,1,3,1
				c7.5,0.3,7.4-3.9,7.5-4.8v-4.9C337.8,72.8,337.2,71.7,336.1,71.1z M334.4,78.6c0,1.1-0.4,1.9-1,2.4c-0.6,0.4-1.3,0.7-2.1,0.7
				c-0.5,0-0.9-0.1-1.2-0.4c-0.3-0.3-0.5-0.7-0.5-1.3c0-0.7,0.3-1.1,0.8-1.5c0.3-0.2,0.8-0.3,1.6-0.5l0.8-0.1
				c0.4-0.1,0.7-0.2,0.9-0.2c0.2-0.1,0.4-0.2,0.7-0.3V78.6z"/>
			<path fill="#2D2D2D" d="M319,73.2c0.9,0,1.5,0.3,1.9,0.8c0.3,0.4,0.5,0.8,0.5,1.3h3.7c-0.2-1.9-0.9-3.2-2-3.9
				c-1.1-0.7-2.5-1.1-4.3-1.1c-2,0-3.6,0.6-4.8,1.9c-1.2,1.2-1.7,3-1.7,5.2c0,2,0.5,3.6,1.6,4.9c1,1.2,2.7,1.9,4.9,1.9
				c2.2,0,3.9-0.7,5-2.2c0.7-0.9,1.1-1.9,1.2-3h-3.7c-0.1,0.7-0.3,1.2-0.6,1.7c-0.4,0.4-1,0.6-1.8,0.6c-1.2,0-2-0.5-2.4-1.6
				c-0.2-0.6-0.4-1.4-0.4-2.3c0-1,0.1-1.8,0.4-2.4C317,73.8,317.8,73.2,319,73.2z"/>
			<path fill="#2D2D2D" d="M311.4,70.3c-7.6,0-7.1,6.7-7.1,6.7v6.8h3.4v-6.4c0-1,0.1-1.8,0.4-2.3c0.5-0.9,1.4-1.3,2.8-1.3
				c0.1,0,0.2,0,0.4,0c0.2,0,0.4,0,0.6,0v-3.5c-0.2,0-0.3,0-0.3,0C311.5,70.3,311.5,70.3,311.4,70.3z"/>
			<path fill="#2D2D2D" d="M298.8,80.3c-0.1,0.2-0.3,0.4-0.5,0.5c-0.5,0.4-1.1,0.5-1.9,0.5c-0.7,0-1.3-0.1-1.8-0.4
				c-0.9-0.5-1.3-1.4-1.4-2.7h9.5c0-1.1,0-2-0.1-2.6c-0.2-1-0.5-1.9-1-2.7c-0.6-0.9-1.4-1.5-2.3-1.9c-0.9-0.4-1.9-0.6-3.1-0.6
				c-1.9,0-3.5,0.6-4.7,1.8c-1.2,1.2-1.8,2.9-1.8,5.2c0,2.4,0.7,4.2,2,5.2c1.3,1.1,2.9,1.6,4.6,1.6c2.1,0,3.8-0.6,4.9-1.9
				c0.6-0.7,1-1.3,1.2-2H298.8z M294.1,73.9c0.5-0.5,1.2-0.7,2-0.7c0.8,0,1.5,0.2,2,0.7c0.5,0.5,0.8,1.2,0.9,2.1h-5.9
				C293.4,75,293.7,74.4,294.1,73.9z"/>
			<g>
				<path fill="#2D2D2D" d="M288.3,83.8h-3.1v-7.9c0-0.7-0.2-2.4-2.3-2.4c-1.4,0-2.4,1-2.4,2.4v7.9h-3.1v-7.9c0-0.7-0.2-2.4-2.3-2.4
					c-1.4,0-2.4,1-2.4,2.4v7.9h-3.1V76c0-3.3,2.2-5.7,5.5-5.7c1.7,0,3,0.7,3.9,1.8c0.9-1.1,2.3-1.8,3.9-1.8c3.4,0,5.5,2.4,5.5,5.7
					V83.8z"/>
			</g>
			<path fill="#2D2D2D" d="M351.6,66.2c0,0-3.5-0.4-3.5,2.4l0,3.7c-0.4-0.6-0.9-1.1-1.5-1.4c-0.6-0.3-1.3-0.5-2.1-0.5
				c-1.7,0-3.1,0.6-4.1,1.9c-1,1.3-1.5,3.1-1.5,5.4c0,1.9,0.5,3.5,1.6,4.8c1,1.2,3.1,1.8,4.9,1.8c6.3,0,6.3-5.4,6.3-5.4L351.6,66.2z
				 M347.5,80.2c-0.5,0.7-1.2,1.1-2.2,1.1c-1,0-1.7-0.4-2.2-1.1c-0.5-0.7-0.7-1.8-0.7-3c0-1.1,0.2-2.1,0.7-2.8
				c0.5-0.8,1.2-1.1,2.2-1.1c0.7,0,1.2,0.2,1.7,0.6c0.8,0.7,1.2,1.9,1.2,3.5C348.2,78.6,348,79.5,347.5,80.2z"/>
		</g>
		<g>
			<g>
				<path fill="#B2B2B2" d="M294.7,105.7c0,0.5-0.2,0.9-0.5,1.2c-0.3,0.3-0.7,0.5-1.2,0.5h-1.7v-12c0-2.3,0.8-3.8,2.1-4.8
					c0.9-0.7,2.1-1.3,4.5-1.3c1.6,0,3.5,0.6,4.5,1.9c1.1,1.4,1.6,2.9,1.6,5c0,2.1-0.5,3.8-1.5,5.1c-1,1.3-2.3,1.9-3.9,1.9
					c-0.8,0-1.6-0.2-2.2-0.4c-0.7-0.3-1.2-0.8-1.6-1.5V105.7z M300.4,96.4c0-1.3-0.3-2.3-0.8-3c-0.5-0.7-1.2-1-2.2-1
					c-0.9,0-1.6,0.4-2.1,1c-0.5,0.6-0.7,1.6-0.7,3c0,1.3,0.3,2.2,0.8,2.8c0.5,0.7,1.2,1,2.2,1c0.9,0,1.6-0.3,2.1-1
					C300.2,98.5,300.4,97.6,300.4,96.4"/>
				<path fill="#B2B2B2" d="M326.7,102.1v-0.8c-0.6,0.9-1.4,1.5-2.4,1.7c-1,0.2-2,0.1-3-0.3c-1-0.4-1.9-1.1-2.6-2.2
					c-0.7-1.1-1.1-2.5-1.1-4.3c0-2.1,0.5-3.7,1.4-5c0.9-1.3,2.5-1.9,4.6-1.9c2.1-0.1,3.3,0.4,4.4,1.3c1.3,1,2,2.5,2,4.8v7
					c0,2.2-1.6,6.4-6.5,6c-3-0.2-4.7-1.5-5.7-4.3h3.6c0.3,0.5,0.7,0.8,1.2,1.1c0.5,0.3,1.1,0.3,1.6,0.2c0.5-0.1,1-0.4,1.5-1
					C326.4,104,326.7,103.2,326.7,102.1 M321.1,96.4c0,2.3,0.7,3.6,2,3.8c1.3,0.2,2.3-0.1,2.9-0.9c0.3-0.4,0.5-0.9,0.6-1.7
					c0.1-0.8,0.1-1.6,0-2.3c-0.1-0.8-0.4-1.4-0.8-2c-0.4-0.6-1.1-0.9-1.9-0.9c-1.1,0-1.9,0.4-2.3,1.2
					C321.3,94.4,321.1,95.3,321.1,96.4"/>
				<path fill="#B2B2B2" d="M314.7,90.3c-1.1-0.6-2.4-0.9-3.8-0.9c-2.2,0-3.8,0.6-4.7,1.7c-0.6,0.7-0.9,1.7-1,2.8h3.3
					c0.1-0.5,0.2-0.9,0.5-1.2c0.3-0.4,0.9-0.6,1.7-0.6c0.7,0,1.3,0.1,1.7,0.3c0.4,0.2,0.6,0.6,0.6,1.1c0,0.4-0.2,0.8-0.7,1
					c-0.3,0.1-0.7,0.2-1.4,0.3l-1.2,0.1c-1.3,0.2-2.3,0.5-3,0.8c-1.3,0.7-1.9,1.9-1.9,3.5c0,1.2,0.4,2.2,1.2,2.9c0.8,0.7,1.8,1,3,1
					c7.5,0.3,7.4-3.9,7.5-4.8v-4.9C316.4,91.9,315.9,90.9,314.7,90.3 M313,97.8c0,1.1-0.4,1.9-1,2.4c-0.6,0.4-1.3,0.6-2.1,0.6
					c-0.5,0-0.9-0.1-1.2-0.4c-0.3-0.3-0.5-0.7-0.5-1.3c0-0.7,0.3-1.1,0.8-1.5c0.3-0.2,0.8-0.3,1.6-0.5l0.8-0.1
					c0.4-0.1,0.7-0.2,0.9-0.2c0.2-0.1,0.4-0.2,0.7-0.3V97.8z"/>
				<path fill="#B2B2B2" d="M343.2,91.4c-1.1-1.4-2.8-2.1-5-2.1c-2.2,0-3.9,0.7-5,2.1c-1.1,1.4-1.7,3-1.7,4.9c0,1.9,0.6,3.6,1.7,4.9
					c1.1,1.4,2.8,2,5,2c2.2,0,3.9-0.7,5-2c1.1-1.4,1.7-3,1.7-4.9C344.8,94.4,344.3,92.8,343.2,91.4 M340.4,99.3
					c-0.5,0.7-1.3,1.1-2.3,1.1c-1,0-1.8-0.4-2.3-1.1c-0.5-0.7-0.8-1.7-0.8-3c0-1.3,0.3-2.3,0.8-3c0.5-0.7,1.3-1.1,2.3-1.1
					c1,0,1.8,0.4,2.3,1.1c0.5,0.7,0.8,1.7,0.8,3C341.2,97.6,340.9,98.6,340.4,99.3"/>
			</g>
		</g>
	</g>
	<g>
		<g>
			<g>
				<g>
					<g>
						<path fill="#989898" d="M327.1,9.1h-9.2c-0.6,0-1.2,0.5-1.3,1.1l-3.7,23.6c-0.1,0.5,0.3,0.9,0.8,0.9h4.7
							c0.4,0,0.8-0.3,0.9-0.8l1.1-6.7c0.1-0.6,0.6-1.1,1.3-1.1h2.9c6.1,0,9.6-2.9,10.5-8.8c0.4-2.5,0-4.5-1.2-5.9
							C332.5,9.9,330.2,9.1,327.1,9.1z M328.2,17.7c-0.5,3.3-3,3.3-5.5,3.3h-1.4l1-6.2c0.1-0.4,0.4-0.6,0.8-0.6h0.6
							c1.7,0,3.2,0,4,0.9C328.2,15.7,328.4,16.5,328.2,17.7z"/>
						<path fill="#353535" d="M261.5,9.1h-9.2c-0.6,0-1.2,0.5-1.3,1.1l-3.7,23.6c-0.1,0.5,0.3,0.9,0.8,0.9h4.4
							c0.6,0,1.2-0.5,1.3-1.1l1-6.4c0.1-0.6,0.6-1.1,1.3-1.1h2.9c6.1,0,9.6-2.9,10.5-8.8c0.4-2.5,0-4.5-1.2-5.9
							C266.9,9.9,264.6,9.1,261.5,9.1z M262.5,17.7c-0.5,3.3-3,3.3-5.5,3.3h-1.4l1-6.2c0.1-0.4,0.4-0.6,0.8-0.6h0.6
							c1.7,0,3.2,0,4,0.9C262.6,15.7,262.7,16.5,262.5,17.7z"/>
						<path fill="#353535" d="M289,17.6h-4.4c-0.4,0-0.7,0.3-0.8,0.6l-0.2,1.2l-0.3-0.4c-1-1.4-3.1-1.8-5.2-1.8
							c-4.9,0-9,3.7-9.8,8.9c-0.4,2.6,0.2,5.1,1.6,6.8c1.3,1.6,3.3,2.2,5.6,2.2c3.9,0,6.1-2.5,6.1-2.5l-0.2,1.2
							c-0.1,0.5,0.3,0.9,0.8,0.9h4c0.6,0,1.2-0.5,1.3-1.1l2.4-15.1C289.8,18,289.5,17.6,289,17.6z M282.9,26.2
							c-0.4,2.5-2.4,4.2-5,4.2c-1.3,0-2.3-0.4-3-1.2c-0.7-0.8-0.9-1.9-0.7-3.1c0.4-2.5,2.4-4.2,4.9-4.2c1.3,0,2.3,0.4,2.9,1.2
							C282.8,23.9,283,25,282.9,26.2z"/>
						<path fill="#989898" d="M354.7,17.6h-4.4c-0.4,0-0.7,0.3-0.8,0.6l-0.2,1.2L349,19c-1-1.4-3.1-1.8-5.2-1.8
							c-4.9,0-9,3.7-9.8,8.9c-0.4,2.6,0.2,5.1,1.6,6.8c1.3,1.6,3.3,2.2,5.6,2.2c3.9,0,6.1-2.5,6.1-2.5l-0.2,1.2
							c-0.1,0.5,0.3,0.9,0.8,0.9h4c0.6,0,1.2-0.5,1.3-1.1l2.4-15.1C355.5,18,355.1,17.6,354.7,17.6z M348.5,26.2
							c-0.4,2.5-2.4,4.2-5,4.2c-1.3,0-2.3-0.4-3-1.2c-0.7-0.8-0.9-1.9-0.7-3.1c0.4-2.5,2.4-4.2,4.9-4.2c1.3,0,2.3,0.4,2.9,1.2
							C348.4,23.9,348.7,25,348.5,26.2z"/>
						<path fill="#353535" d="M312.5,17.6H308c-0.4,0-0.8,0.2-1.1,0.6l-6.1,9l-2.6-8.7c-0.2-0.5-0.7-0.9-1.2-0.9h-4.4
							c-0.5,0-0.9,0.5-0.7,1l4.9,14.3l-4.6,6.5c-0.4,0.5,0,1.2,0.6,1.2h4.4c0.4,0,0.8-0.2,1.1-0.6l14.7-21.3
							C313.5,18.3,313.1,17.6,312.5,17.6z"/>
						<path fill="#989898" d="M359.9,9.7l-3.8,24c-0.1,0.5,0.3,0.9,0.8,0.9h3.8c0.6,0,1.2-0.5,1.3-1.1l3.7-23.6
							c0.1-0.5-0.3-0.9-0.8-0.9h-4.3C360.2,9.1,359.9,9.4,359.9,9.7z"/>
					</g>
				</g>
			</g>
		</g>
		<g>
			<path fill="#989898" d="M229.2,10.3c0.5-3.2,0-5.3-1.7-7.3c-1.9-2.1-5.3-3.1-9.6-3.1h-12.6c-0.9,0-1.6,0.6-1.8,1.5l-5.3,33.3
				c-0.1,0.7,0.4,1.3,1.1,1.3h7.8l-0.5,3.4c-0.1,0.6,0.4,1.1,0.9,1.1h6.6c0.8,0,1.4-0.6,1.6-1.3l0.1-0.3l1.2-7.8l0.1-0.4
				c0.1-0.8,0.8-1.3,1.6-1.3h1c6.4,0,11.3-2.6,12.8-10.1c0.6-3.1,0.3-5.7-1.3-7.6C230.5,11.2,229.9,10.7,229.2,10.3L229.2,10.3"/>
			<path fill="#272727" d="M229.2,10.3c0.5-3.2,0-5.3-1.7-7.3c-1.9-2.1-5.3-3.1-9.6-3.1h-12.6c-0.9,0-1.6,0.6-1.8,1.5l-5.3,33.3
				c-0.1,0.7,0.4,1.3,1.1,1.3h7.8l2-12.4l-0.1,0.4c0.1-0.9,0.9-1.5,1.8-1.5h3.7c7.3,0,13-3,14.6-11.5
				C229.1,10.8,229.2,10.6,229.2,10.3"/>
			<path fill="#353535" d="M211.1,10.4c0.1-0.5,0.4-1,0.9-1.2c0.2-0.1,0.4-0.2,0.7-0.2h9.9c1.2,0,2.3,0.1,3.3,0.2
				c0.3,0,0.6,0.1,0.8,0.2c0.3,0.1,0.5,0.1,0.8,0.2c0.1,0,0.3,0.1,0.4,0.1c0.5,0.2,0.9,0.4,1.4,0.6c0.5-3.2,0-5.3-1.7-7.3
				c-1.9-2.1-5.3-3.1-9.6-3.1h-12.6c-0.9,0-1.6,0.6-1.8,1.5l-5.3,33.3c-0.1,0.7,0.4,1.3,1.1,1.3h7.8l2-12.4L211.1,10.4z"/>
		</g>
	</g>
</g>
</svg>
